<svg width="32" height="34" viewBox="0 0 32 34" fill="none" xmlns="http://www.w3.org/2000/svg">
<path d="M14.292 10.292C14.3849 10.1989 14.4952 10.125 14.6167 10.0746C14.7382 10.0242 14.8685 9.99821 15 9.99821C15.1315 9.99821 15.2618 10.0242 15.3833 10.0746C15.5048 10.125 15.6151 10.1989 15.708 10.292L21.708 16.292C21.8011 16.3849 21.875 16.4952 21.9254 16.6167C21.9758 16.7382 22.0018 16.8685 22.0018 17C22.0018 17.1315 21.9758 17.2618 21.9254 17.3833C21.875 17.5048 21.8011 17.6151 21.708 17.708L15.708 23.708C15.5202 23.8958 15.2656 24.0013 15 24.0013C14.7344 24.0013 14.4798 23.8958 14.292 23.708C14.1042 23.5202 13.9987 23.2656 13.9987 23C13.9987 22.7344 14.1042 22.4798 14.292 22.292L18.586 18H1C0.734784 18 0.48043 17.8946 0.292893 17.7071C0.105357 17.5196 0 17.2652 0 17C0 16.7348 0.105357 16.4804 0.292893 16.2929C0.48043 16.1054 0.734784 16 1 16H18.586L14.292 11.708C14.1989 11.6151 14.125 11.5048 14.0746 11.3833C14.0242 11.2618 13.9982 11.1315 13.9982 11C13.9982 10.8685 14.0242 10.7382 14.0746 10.6167C14.125 10.4952 14.1989 10.3849 14.292 10.292Z" fill="#F28F3B"/>
<path d="M16.556 0H21.444C23.088 0 24.382 -3.72529e-08 25.424 0.086C26.484 0.172 27.372 0.352 28.178 0.762C29.4956 1.43319 30.5668 2.5044 31.238 3.822C31.648 4.628 31.828 5.516 31.914 6.578C32 7.618 32 8.914 32 10.556V23.444C32 25.088 32 26.382 31.914 27.424C31.828 28.484 31.648 29.372 31.238 30.178C30.5668 31.4956 29.4956 32.5668 28.178 33.238C27.372 33.648 26.484 33.828 25.422 33.914C24.382 34 23.088 34 21.444 34H16.556C14.912 34 13.618 34 12.576 33.914C11.516 33.828 10.628 33.648 9.822 33.238C8.5044 32.5668 7.43319 31.4956 6.762 30.178C6.352 29.372 6.172 28.484 6.086 27.422C6 26.382 6 25.088 6 23.444V23C6 22.7348 6.10536 22.4804 6.29289 22.2929C6.48043 22.1054 6.73478 22 7 22C7.26522 22 7.51957 22.1054 7.70711 22.2929C7.89464 22.4804 8 22.7348 8 23V23.4C8 25.096 8 26.308 8.08 27.26C8.156 28.198 8.3 28.792 8.544 29.27C9.02379 30.2105 9.78901 30.9751 10.73 31.454C11.208 31.698 11.802 31.844 12.74 31.922C13.692 32 14.904 32 16.6 32H21.4C23.096 32 24.31 32 25.26 31.92C26.198 31.844 26.792 31.7 27.27 31.454C28.2102 30.9747 28.9747 30.2102 29.454 29.27C29.698 28.792 29.844 28.198 29.922 27.26C30 26.308 30 25.096 30 23.4V10.6C30 8.904 30 7.69 29.92 6.74C29.844 5.802 29.7 5.208 29.454 4.73C28.9751 3.78901 28.2105 3.02379 27.27 2.544C26.792 2.302 26.198 2.156 25.26 2.078C24.31 2 23.096 2 21.4 2H16.6C14.904 2 13.69 2 12.74 2.08C11.802 2.156 11.208 2.3 10.73 2.544C9.78871 3.02345 9.02345 3.78871 8.544 4.73C8.302 5.208 8.156 5.802 8.078 6.74C8 7.69 8 8.904 8 10.6V11C8 11.2652 7.89464 11.5196 7.70711 11.7071C7.51957 11.8946 7.26522 12 7 12C6.73478 12 6.48043 11.8946 6.29289 11.7071C6.10536 11.5196 6 11.2652 6 11V10.556C6 8.914 6 7.62 6.086 6.576C6.172 5.516 6.352 4.628 6.762 3.822C7.43319 2.5044 8.5044 1.43319 9.822 0.762C10.628 0.352 11.516 0.172 12.578 0.086C13.618 -3.72529e-08 14.914 0 16.556 0Z" fill="#F28F3B"/>
</svg>
